<svg width="108" height="26" viewBox="0 0 108 26" fill="none" xmlns="http://www.w3.org/2000/svg">
<path d="M28.082 0.962891H30.8982C30.9869 0.962891 31.0534 1.00724 31.0534 1.11811V3.95931C31.0534 4.04801 30.9869 4.11453 30.8982 4.11453H28.082C27.9933 4.11453 27.9268 4.04801 27.9268 3.95931V1.11811C27.9268 1.02941 27.9933 0.962891 28.082 0.962891Z" fill="#42484E"/>
<path d="M39.8081 11.0206C39.123 10.9496 38.485 10.8835 37.9928 10.7851C37.0615 10.6077 36.7732 10.2529 36.7732 9.69854C36.7732 8.8559 37.5493 8.27936 39.035 8.27936C40.5651 8.27936 41.9399 8.83373 42.9599 9.69854C43.0264 9.76506 43.1151 9.76507 43.1817 9.67637L44.8448 7.725C44.9113 7.65847 44.9113 7.56977 44.8226 7.50325C43.98 6.74931 42.2947 5.68493 39.412 5.68493C36.1745 5.68493 34.0014 7.21498 34.0014 9.92028C34.0014 11.8938 35.0658 12.8252 36.4849 13.313C37.4252 13.6264 38.3572 13.7054 39.255 13.7814C39.8181 13.8291 40.3678 13.8757 40.8977 13.9782C41.9399 14.1556 42.2725 14.5769 42.2725 15.2422C42.2725 16.1513 41.4521 16.7057 39.8333 16.7057C37.9485 16.7057 36.5071 16.107 35.3762 15.0204C35.3097 14.9539 35.1988 14.9317 35.1323 15.0204L33.5135 16.9718C33.5096 16.9837 33.5049 16.9955 33.5003 17.0073C33.4791 17.0614 33.4589 17.1128 33.5135 17.1492C34.334 17.9918 36.0858 19.278 39.5672 19.278C43.603 19.278 45.1996 17.3266 45.1996 14.9761C45.1109 12.4925 43.4256 11.5834 41.9621 11.2951C41.2654 11.1715 40.5118 11.0935 39.8081 11.0206Z" fill="#42484E"/>
<path d="M30.8445 5.96784H28.1628C28.0741 5.96784 28.0076 6.03436 28.0076 6.12306L28.0001 18.8126C28.0001 18.9013 28.0666 18.9678 28.1553 18.9678H30.8371C30.9258 18.9678 30.9923 18.9013 30.9923 18.8126L30.9998 6.12306C30.9998 6.03436 30.9554 5.96784 30.8445 5.96784Z" fill="#42484E"/>
<path fill-rule="evenodd" clip-rule="evenodd" d="M55.0253 5.64128C53.1849 5.64128 51.7879 6.26217 50.8344 7.2822V6.10633C50.8344 6.01764 50.7678 5.95112 50.6791 5.95112H48.1512C48.0625 5.95112 47.996 6.01764 47.996 6.10633V24.3123C47.996 24.401 48.0625 24.4675 48.1512 24.4675H50.8122C50.9009 24.4675 50.9674 24.401 50.9674 24.3123V17.7264C51.9209 18.6578 53.2514 19.19 55.0475 19.19C58.9281 19.19 61.5003 16.2186 61.5003 12.3824C61.4781 8.63486 58.9281 5.64128 55.0253 5.64128ZM54.5375 16.4403C52.0096 16.4403 50.7235 14.6442 50.7235 12.4267C50.7235 10.2314 52.0096 8.45745 54.5375 8.45745C56.9102 8.45745 58.3294 10.2536 58.3294 12.4267C58.3294 14.6442 56.9102 16.4403 54.5375 16.4403Z" fill="#42484E"/>
<path d="M70.4973 5.68493C71.1181 5.68493 71.7169 5.81798 72.1604 5.9732C72.249 5.99538 72.249 6.0619 72.249 6.19495L71.5173 8.92243C71.4951 9.01113 71.4286 9.0333 71.3399 9.01113C70.8742 8.8559 70.3864 8.7672 69.9872 8.7672C68.1024 8.7672 66.9715 10.3194 66.9715 12.1156V18.8123C66.9715 18.901 66.905 18.9675 66.8163 18.9675H64.1553C64.0666 18.9675 64.0001 18.901 64.0001 18.8123V6.12664C64.0001 6.03795 64.0666 5.97143 64.1553 5.97143H66.6832C66.7719 5.97143 66.8384 6.03795 66.8384 6.12664V7.725C67.792 6.1506 69.2555 5.68493 70.4973 5.68493Z" fill="#42484E"/>
<path fill-rule="evenodd" clip-rule="evenodd" d="M106.823 5.98086H104.295C104.206 5.98086 104.14 6.04739 104.14 6.13608V7.29223C103.164 6.27219 101.789 5.6513 99.9486 5.6513C96.068 5.6513 93.4958 8.75784 93.4958 12.5497C93.4958 16.3637 96.068 19.3573 99.9486 19.3573C101.723 19.3573 103.075 18.8029 104.029 17.8938V19.1356C104.029 21.4195 102.277 22.3065 100.68 22.3065C99.1724 22.3065 97.7755 21.5748 97.0215 20.1112C96.9993 20.0225 96.8663 19.9782 96.7998 20.0225L94.3162 21.1534C94.2497 21.1756 94.2275 21.2865 94.2497 21.3308C94.9371 22.9496 96.8219 24.9675 100.68 24.9675C104.849 24.9675 107 22.373 107 19.1356V6.13608C106.978 6.04739 106.911 5.98086 106.823 5.98086ZM100.436 16.5855C98.0637 16.5855 96.6445 14.7893 96.6445 12.5719C96.6445 10.3766 98.0637 8.46748 100.436 8.46748C102.964 8.46748 104.25 10.3988 104.25 12.5719C104.25 14.7893 102.964 16.5855 100.436 16.5855Z" fill="#42484E"/>
<path d="M74.1553 5.9972H76.8163C76.905 5.9972 76.9715 6.06372 76.9715 6.15242V18.8494C76.9715 18.9381 76.905 19.0047 76.8163 19.0047H74.1553C74.0666 19.0047 74.0001 18.9381 74.0001 18.8494V6.15242C74.0001 6.06372 74.0666 5.9972 74.1553 5.9972Z" fill="#42484E"/>
<path d="M86.6651 5.72741C85.0315 5.72741 83.7246 6.24741 82.788 7.15742V6.14286C82.788 6.05619 82.7227 5.9912 82.6356 5.9912H80.1526C80.0654 5.9912 80.0001 6.05619 80.0001 6.14286V18.8494C80.0001 18.9361 80.0654 19.0011 80.1526 19.0011H82.7663C82.8534 19.0011 82.9187 18.9361 82.9187 18.8494V11.7211C82.9187 10.0094 83.8335 8.45743 85.7285 8.45743C87.3185 8.45743 88.3858 9.5977 88.3858 11.5044V18.8494C88.3858 18.9361 88.4511 19.0011 88.5382 19.0011H91.1519C91.2391 19.0011 91.3044 18.9361 91.3044 18.8494V10.7894C91.2826 8.14602 90.1065 5.72741 86.6651 5.72741Z" fill="#42484E"/>
<path d="M74.0967 0.971358H76.9024C76.9911 0.971358 77.0576 1.01571 77.0576 1.12658V3.96777C77.0576 4.05647 76.9911 4.123 76.9024 4.123H74.0967C74.008 4.123 73.9415 4.05647 73.9415 3.96777V1.12658C73.9415 1.03788 74.008 0.971358 74.0967 0.971358Z" fill="#42484E"/>
<path d="M9.46189 6.89942H9.48349H11.7519H11.7735C12.1623 6.89942 12.4432 6.61858 12.4432 6.22971V1.36893C12.4432 0.980065 12.1623 0.699219 11.7735 0.699219H11.7519H9.48349H9.46189C9.07303 0.699219 8.79218 0.980065 8.79218 1.36893V6.22971C8.77058 6.64018 9.05142 6.89942 9.46189 6.89942Z" fill="#782AA2"/>
<path d="M6.41561 9.49105L6.43722 9.46944L7.84144 7.69796L7.86305 7.67636C8.10068 7.37391 8.05748 6.98504 7.75503 6.7258L3.95282 3.70131C3.65037 3.46368 3.2615 3.50688 3.00226 3.80933L2.98066 3.83093L1.57643 5.60242L1.55483 5.62402C1.31719 5.92647 1.3604 6.31534 1.66285 6.57458L5.46506 9.59907C5.78911 9.8367 6.17797 9.7935 6.41561 9.49105Z" fill="#782AA2"/>
<path d="M6.54452 13.467V13.4454L6.04764 11.2419V11.2203C5.96123 10.8314 5.63717 10.637 5.24831 10.7234L0.517146 11.8036C0.128283 11.89 -0.0661457 12.214 0.0202682 12.6029V12.6245L0.517146 14.8281V14.8497C0.60356 15.2385 0.927615 15.433 1.31648 15.3465L6.04764 14.2664C6.4365 14.18 6.63093 13.8559 6.54452 13.467Z" fill="#782AA2"/>
<path d="M9.7422 15.843L9.7206 15.8214L7.68987 14.8492L7.66826 14.8276C7.30101 14.6548 6.93374 14.7844 6.78252 15.1517L4.68698 19.5156C4.51415 19.8828 4.64378 20.2501 5.01104 20.4013L5.03264 20.4229L7.06337 21.3951L7.08497 21.4167C7.45223 21.5895 7.81949 21.4599 7.97071 21.0926L10.0663 16.7287C10.2175 16.3831 10.0879 16.0158 9.7422 15.843Z" fill="#782AA2"/>
<path d="M13.5872 14.8491L13.5656 14.8707L11.5349 15.8429L11.5133 15.8645C11.146 16.0373 11.038 16.4045 11.1892 16.7718L13.3063 21.1357C13.4792 21.503 13.8464 21.611 14.2137 21.4598L14.2353 21.4382L16.266 20.466L16.2876 20.4444C16.6549 20.2716 16.7629 19.9043 16.6117 19.5371L14.4945 15.1731C14.3001 14.8059 13.9328 14.6763 13.5872 14.8491Z" fill="#782AA2"/>
<path d="M15.1851 11.1988V11.2204L14.6882 13.4239V13.4455C14.6018 13.8344 14.7963 14.1585 15.1851 14.2449L19.9163 15.3251C20.3051 15.4115 20.6292 15.217 20.7156 14.8282V14.8066L21.2125 12.603V12.5814C21.2989 12.1925 21.1045 11.8685 20.7156 11.7821L15.9844 10.7019C15.6172 10.6155 15.2931 10.8099 15.1851 11.1988Z" fill="#782AA2"/>
<path d="M13.3498 7.67636L13.3714 7.69796L14.7756 9.46944L14.7972 9.49105C15.0348 9.7935 15.4237 9.8367 15.7477 9.59907L19.55 6.57458C19.8524 6.33694 19.8956 5.94808 19.658 5.62402L19.6364 5.60242L18.2321 3.83093L18.2105 3.80933C17.9729 3.50688 17.584 3.46368 17.26 3.70131L13.4578 6.7258C13.1553 6.98504 13.1121 7.35231 13.3498 7.67636Z" fill="#782AA2"/>
</svg>
